<?xml version="1.0" encoding="UTF-8"?>
<svg id="Layer_2" data-name="Layer 2" xmlns="http://www.w3.org/2000/svg" viewBox="0 0 34.34 32">
  <defs>
    <style>
      .cls-1 {
        fill: #fff;
      }
    </style>
  </defs>
  <g id="Layer_1-2" data-name="Layer 1">
    <g>
      <path class="cls-1" d="M24.07,7.92l-.65,1.39c-1.89,0-3.95.03-5.55,1.18v18.67c.59-.23,1.81-.88,2.39-.88h11.59V9.33h-1.95s.47-1.42.47-1.42l2.23.04.49,1.02h1.23v22.13h-14.16l-.61.9-4.6-.02-.89-.88H0V8.98l1.22-.02.64-1.04c5.11.36,10.6-.95,15.4,1.17.86-.34,2.68-1.17,3.54-1.17h3.27ZM16.64,29.15V10.48c-.37-.33-.95-.55-1.42-.7-.22-.07-1.59-.45-1.68-.45H2.48v18.94h11.59c.51,0,2.48.99,2.57.88Z"/>
      <path class="cls-1" d="M21.24,22.43c.23-1.81.01-3.77.4-5.53.26-1.19,1-2.67,1.46-3.85,1.58-4.08,3.41-8.09,5-12.17.67-1.18,1.86-1.11,2.79-.24.83.77.7,1.36.4,2.36-1.55,5.1-4.72,10.53-6.47,15.65l-3.57,3.77ZM30.26,4.21l-2.65-1.25-.1.71,2.18,1.21.5-.14.08-.53ZM24.07,18.54l-1.94-.89-.18,3.01c.31.32,1.75-1.39,1.95-1.68.1-.15.25-.18.17-.44Z"/>
      <path class="cls-1" d="M22.3,12.52l-.47.86c-.47-.15-2.23.72-2.36.11-.16-.72,2.35-1.04,2.83-.97Z"/>
      <polygon class="cls-1" points="29.38 15.35 29.38 16.06 27.08 16.06 27.38 15.34 29.38 15.35"/>
      <path class="cls-1" d="M21.06,15.53c-.32,1.86-2.54.53-1.07.08.35-.11.71-.09,1.07-.08Z"/>
      <path class="cls-1" d="M28.14,13.4l.2-.86c1.6-.2,1.31,1.16-.2.86Z"/>
      <path class="cls-1" d="M5.22,12.52h7.96c.16,0,1.64.49,1.68.62.01,1.19-1.09.26-1.5.26H5.22c-.38-.27-.38-.61,0-.88Z"/>
      <path class="cls-1" d="M5.22,20.84h7.61c.12,0,1.28.24,1.48.29.61.18.83.78.27.93-.39.1-.98-.34-1.22-.34H5.22c-.38-.27-.38-.61,0-.88Z"/>
      <path class="cls-1" d="M14.87,18.54l-.44.71c-.65-.09-1.28-.33-1.94-.36-2.08-.12-5.21.34-7.08,0-.24-.04-.5-.17-.44-.44.23-.32.4-.4.79-.45,1.42-.19,4.71-.1,6.21,0,.99.07,1.95.34,2.91.54Z"/>
      <path class="cls-1" d="M5.22,15.35h8.14c.16,0,1.32.36,1.42.52l-.2.7c-.89-.24-1.89-.46-2.81-.52-1.89-.13-4.67.31-6.38,0-.5-.09-.6-.4-.18-.71Z"/>
      <path class="cls-1" d="M10.44,23.67l.02.63c-.25.28-.48.24-.81.27-.61.05-4.55.04-4.7-.19l.26-.71h5.22Z"/>
    </g>
  </g>
</svg>