<?xml version="1.0" encoding="UTF-8"?>
<svg id="Layer_2" data-name="Layer 2" xmlns="http://www.w3.org/2000/svg" viewBox="0 0 54.96 32">
  <defs>
    <style>
      .cls-1 {
        fill: #fff;
      }
    </style>
  </defs>
  <g id="Layer_1-2" data-name="Layer 1">
    <g>
      <path class="cls-1" d="M12.66,28.36c-1.39-8.1-1.79-16.58-.08-24.66,9.3-4.83,20.72-5.1,29.91.15,1.54,7.99,1.31,16.5-.12,24.44-9.29,4.99-20.39,4.85-29.71.06ZM30.07,10.68l-.12-1.38c-1.73-1.26-1.32,1.34-1.68,1.4h-2.58s0-1.38,0-1.38h-1.37s0,1.37,0,1.37l-2.85.29-.4-1.26-1.11-.12-.26,1.52-2.75.39-.04-1.05-1.33-.32c.33.99-.39,1.64-.54,2.35-.19.91.83,1.13.66,2.31l.83.28.61-.41-.21-1.51,3.01-.28.12,1.39,1.25.26v-1.91s3-.27,3-.27l.12,1.66,1.24.26v-1.91s2.97.45,2.97.45l.03,1.31,1.33-.29.04-1.47,3,.28v1.91s1.25-.26,1.25-.26l.12-1.38,3,.28-.15,1.64,1.52.27.56-2.58-.99-2.59-1.08.24.15,1.1-2.97-.3c.06-1.08-.15-2.08-1.4-1.43l-.44,1.45-2.56-.25Z"/>
      <path class="cls-1" d="M8.49,25.97C5.64,24.06-.02,19.72,0,16s5.32-7.8,8.08-9.7l-.42,9.44.83,10.23Z"/>
      <path class="cls-1" d="M46.74,25.7c-.3-.34.51-6.47.56-7.5.16-3.99-.29-7.93-.42-11.9,2.38,1.4,7.23,5.55,7.93,8.19,1.07,4.07-3.71,8.36-6.73,10.5-.24.17-1.15.93-1.34.71Z"/>
    </g>
  </g>
</svg>