<?xml version="1.0" encoding="UTF-8"?>
<svg id="Layer_2" data-name="Layer 2" xmlns="http://www.w3.org/2000/svg" viewBox="0 0 42.37 32">
  <defs>
    <style>
      .cls-1 {
        fill: #fff;
      }
    </style>
  </defs>
  <g id="Layer_1-2" data-name="Layer 1">
    <g>
      <path class="cls-1" d="M.02,32c-.28-.36,1.92-6.02,2.05-7.04.33-2.5-.55-9.82.28-11.46.47-.92,1.41-1.21,2.38-1.3,6.06-.57,12.97.45,19.12,0,1.52.05,2.51.9,2.65,2.41.28,3.01.34,10.2,0,13.14-.17,1.42-1.09,1.84-2.41,1.96-5.31.49-11.84-.67-17.02.01-2.07.27-4.92,1.78-7.04,2.28ZM15.67,19.57v-4.49c0-.49-1.04-1.04-1.52-1.03l-.55.35c1.01,1.28.78,10.75.19,11.12l-1.58.03,2.42,2.48c.21-.02.63-.63.7-.86.05-.17.33-1.65.33-1.74v-4.72l3.34,4.37h3.57c.1-.43-.14-.45-.38-.65-1.08-.94-5.63-3.31-6.06-4.3l3.35-2.19.08-.52c-.42-.69-1.19-1.22-2.03-1.06-.25,1.23-.74,2.49-1.86,3.2ZM8.77,25.09c.8.74,4.58-4.25,4.89-5.14.12-.33.15-.38-.16-.62-1.22-.82-3.19.67-4.51.7.28,1.7,1.57.31,2.53.58l-2.76,4.48Z"/>
      <g>
        <path class="cls-1" d="M15.67,2.19c.17-.94,1.22-1.85,2.18-1.96,6.24-.73,13.88.56,20.27,0,.75.01,1.59.69,1.9,1.32.87,1.8-.03,8.23.3,10.75.26,1.95,1.71,4.54,2.05,6.58-.27.27-6.19-2.14-7.27-2.28-2.09-.28-4.63.16-6.77-.02-.11-.9-.08-2.22-.28-3.06-.11-.43-1.23-2.12-1.1-2.24l3.07.03.83,1.7,2.31.1-3.26-9.17h-2.69s-2.33,6.64-2.33,6.64h-9.21c.31-2.5-.42-6.03,0-8.4Z"/>
        <polygon class="cls-1" points="29.48 9.44 27.64 9.44 28.68 6.68 29.48 9.44"/>
      </g>
    </g>
  </g>
</svg>