<?xml version="1.0" encoding="UTF-8"?>
<svg id="Layer_2" data-name="Layer 2" xmlns="http://www.w3.org/2000/svg" viewBox="0 0 26.23 32">
  <defs>
    <style>
      .cls-1 {
        fill: #fff;
      }
    </style>
  </defs>
  <g id="Layer_1-2" data-name="Layer 1">
    <path class="cls-1" d="M0,0h26.23v32H0V0ZM24.82,4.9V1.5l-.26-.26H1.41v3.41l.7.26c0-2.44,2.46-2.49,2.53,0,.45-.76.25-1.74,1.4-1.91l.87.51.61,1.39c-.08-1.2,1.25-2.72,2.18-1.39.35.49.1,1.13.61,1.39-.15-1.3,1.38-2.72,2.26-1.29.27.43.04,1.09.54,1.29-.13-.92.42-1.71,1.31-1.91.89.22,1.2,1.06,1.14,1.91h9.26ZM8.26,3.72c-.36.37-.21,1.74-.18,2.28,1.51,1.99,2.13-1.9,1.01-2.42-.23-.13-.66-.04-.83.14ZM1.41,5.25v4.02h.69s.28-1.21.28-1.21c.49-.66,1.27-.71,1.83-.1l.43,1.32.97-1.66.43-.11c.88.11,1.21.97,1.31,1.77.46-.2.28-.73.51-1.14.78-1.39,2.38-.19,2.11,1.14.37.05.28.02.39-.22.29-.67.15-1.55,1.27-1.54.8.01,1.25,1.04,1.13,1.76h6.29c-.36-1.34,1.34-2.51,2.1-1.14.23.41.09.84.43,1.14.29-.88.67-2.09,1.83-1.66.56.41.78.96.71,1.66h.7s0-4.02,0-4.02h-9.26c.06.88-.43,1.91-1.44,1.71-.74-.27-1.02-.96-1.01-1.71-.57-.13-.28.48-.43.88-.32.87-1.55,1.18-2.03.39-.18-.3-.16-1.39-.6-1.28.09,1.31-1.39,2.57-2.19,1.15-.23-.41-.05-.95-.51-1.14-.21,2.25-2.48,2.4-2.45,0-.59-.06-.3.83-.69,1.32-.9,1.12-2.3-.08-2.11-1.31h-.69ZM1.41,9.88v3.93h.7c.06-2.46,2.3-2.42,2.54,0,.38-.34.2-.87.46-1.29.89-1.45,2.3.06,2.26,1.29.41-.2.3-.91.54-1.29.51-.8,1.31-.66,1.89,0l.19,1.29h6.7c.23-1.08,1.21-2.71,2.29-1.39.38.46.09,1.15.61,1.39.13-.94.27-1.6,1.28-1.89l.97.6.19,1.29h2.8v-3.93l-.43-.26c-.33.07-.18,1.91-1.4,1.91-.92,0-1.18-1.25-1.4-1.91-.41.36-.15.86-.43,1.32-.77,1.31-2.34.15-2.19-1.16h-6.13c-.3,2.45-2.32,2.13-2.61-.17-.39.39-.19.92-.53,1.39-.49.69-1.42.62-1.84-.07-.26-.42-.08-1.13-.51-1.32l-.44,1.39-.87.51c-1.23-.14-.87-1.3-1.48-1.91.11.77-.23,1.28-.78,1.76-.94.59-1.84-.87-1.67-1.76l-.7.26ZM5.9,12.44c-.19.05-.56.44-.61.63-.07.87-.27,2.16.75,2.5l.75-.65c.15-.6.17-2.75-.89-2.48ZM1.41,14.17v3.93l.44.26,1.85-.08c.27-1.25.91-2.54,2.27-1.41l.43,1.32h12.25c.15-2.29,2.36-2.38,2.53,0l.52-1.31.8-.43c1.09,0,1.15,1.06,1.46,1.85l.89-.19v-3.93h-2.8c.22.96-.54,2.04-1.58,1.67l-.42-.28-.53-1.39c-.37,0-.04,1.75-1.4,1.75-1.04,0-1.08-.94-1.33-1.73l-6.79-.02c.27,1.16-1.11,2.44-2.01,1.39-.34-.4-.17-1.14-.61-1.39-.17.79-.27,1.78-1.32,1.76-.98-.01-1.04-1.11-1.39-1.76l-.43,1.32c-.57.6-1.34.55-1.83-.1l-.28-1.2h-.69ZM1.41,18.8v3.93h.69c.13-2.46,2.38-2.48,2.46,0,.61-.61.25-1.77,1.48-1.91l.87.51.61,1.39c.02-1.47,1.21-2.68,2.32-1.18l.13,1.18h5.84c.32-1.4,1.04-2.65,2.39-1.28l.17,1.28c.63.06.18-.8.61-1.39.49-.67,1.24-.66,1.74,0l.61,1.39c.05-1.37,1.13-2.69,2.25-1.29l.19,1.29h1.05v-3.93l-.89-.19c-.24.77-.45,1.55-1.31,1.86l-.9-.41-.58-1.34c-.17,2.13-2.33,2.33-2.49.11l-.21-.23-12.13.14-.81,1.55c-1.03.61-1.62-.89-1.83-1.68l-1.85-.08-.44.26ZM19.7,21.36c-.81.23-.84,2.21-.38,2.76l.67.33.6-.62c.07-.69.29-2.81-.89-2.47ZM1.41,23.08v3.93l.43.26c.33-.07.18-1.91,1.4-1.91,1.15,0,.92,1.42,1.48,1.91-.05-2.42,2.58-2.47,2.45,0h5.84c.21-.87.37-1.71,1.41-1.91,1.04.3.95.81,1.14,1.65.06.27-.12.3.34.26.05-.89.33-1.72,1.31-1.92.97.26,1.18,1.02,1.22,1.91.38-.34.2-.87.46-1.29.46-.75,1.42-.77,1.91-.02.28.42.14,1.07.52,1.32-.06-.94.27-1.77,1.29-1.88.82.3,1.28,1.01,1.16,1.89h1.05s0-4.19,0-4.19l-.89.08c-.21.78-.36,1.57-1.3,1.69-1.22-.13-.94-.96-1.4-1.76l-.53,1.39c-.52.49-1.25.53-1.66-.08l-.7-1.31c.15,1.24-.88,2.35-2.01,1.39l-.56-1.4h-5.83c.13,2.37-2.27,2.28-2.45,0-.37.17-.29.76-.52,1.14-.47.77-1.32.86-1.83.08-.27-.42-.2-.87-.53-1.22l-.43,1.32c-.57.6-1.34.55-1.83-.1l-.28-1.2h-.69ZM1.41,27.62v2.97h23.42v-2.97h-1.04c.02,1.26-.97,2.38-2.11,1.32l-.52-1.31c-.08,2.29-2.51,2.32-2.45,0l-.69,1.31-.8.43c-1.12,0-.96-.85-1.26-1.52-.11-.24-.02-.27-.39-.22,0,2.4-2.27,2.22-2.55-.01l-5.83.02c.01.93-.4,1.84-1.45,1.71-.78-.15-.92-1.11-1.09-1.72-.34.31-.2.74-.43,1.14-.78,1.39-2.38.19-2.11-1.14h-.7Z"/>
  </g>
</svg>