<?xml version="1.0" encoding="UTF-8"?>
<svg id="Layer_2" data-name="Layer 2" xmlns="http://www.w3.org/2000/svg" viewBox="0 0 25.73 32">
  <defs>
    <style>
      .cls-1 {
        fill: #fff;
      }
    </style>
  </defs>
  <g id="Layer_1-2" data-name="Layer 1">
    <g>
      <path class="cls-1" d="M12,28.16h-2.02l-.17-1.39c-2.12-.11-4.35-.81-6.18-1.88-3.12-1.83-1.04-2.11.1-4.49C-5.95,11.23,4.94-3.78,16.64,2.69c.74-.48,1.61-2.77,2.55-2.69,1.31.11,4.43,4.33,5.03,5.58,4.56,9.41-1.75,20.4-12.06,21.19l-.17,1.39ZM19.24,2.35l-1,1.52c9.66,9.14-1.16,24.02-12.91,17.72l-1.21,1.34c9.9,6.53,22.48-2.91,19.31-14.37-.6-2.18-2.2-5.07-4.19-6.21ZM13.1,4.35l-.37-1.1-.46.55-.18-.33-1.12.33-.26,1.11,1.28-1.1.37,1.83h-.91s.37.73.37.73c-1.27.39-3.32.95-3.66,2.38l-.19-.91c-1-.2-2.25-.77-2.29.73l.29.47.91-.1-.55.64.53.3-.13.59c.34.84,1.16.29,1.75.42.56.12,2.4,1.37,2.79,1.79.23.25.28.63.56.91.59.61,1.55.62,2.18,1.11l-1.64,2.38c-1.46-.19-1.49,1.47-2.94,1.37l.19.36c-1.5,0-2.29,2-.42,2.34,3.3.6,6.96-.71,9.01-3.35,1.19-1.52,1.63-2.91,1.46-4.83l-2,.08c-1.48-1.27-.97-4.13.64-5,.28.02.52.93,1,.23l-1.36-1.5-.45.15-.02,1.44-.7-.85c.72-.88-.56-1.13-1.03-1.72-.8-1.01-.34-2.44-2.48-2.56l-.18,1.1ZM7.78,3.62C-.03,6.16-.2,17.83,7.6,20.46c-.35-.39-.41-1.55-.37-2.09.07-.83.53-1.72.37-2.57-.1-.51-1.4-1.68-1.46-2.58-.06-.97,1.09-.99,1.1-1.91l-.93-.45c-.14-1.48-1.64-1.62-1.65-3.12,0-.9.63-1.58.93-2.38l2.2-1.74Z"/>
      <path class="cls-1" d="M16.94,32H5.04c.02-1.05.54-2.37,1.64-2.66.88-.23,7.52-.24,8.48-.04,1.25.25,1.68,1.58,1.78,2.7Z"/>
    </g>
  </g>
</svg>