<?xml version="1.0" encoding="UTF-8"?>
<svg id="Layer_2" data-name="Layer 2" xmlns="http://www.w3.org/2000/svg" viewBox="0 0 45.88 32">
  <defs>
    <style>
      .cls-1 {
        fill: #fff;
      }
    </style>
  </defs>
  <g id="Layer_1-2" data-name="Layer 1">
    <g>
      <polygon class="cls-1" points="35.93 27.98 37.36 29.81 35.53 31.25 34.1 29.51 35.93 27.98"/>
      <g>
        <path class="cls-1" d="M22.22,10.47c2.4-.11,4.69.74,6.68,1.98,4.1-.81,8.87-2.04,13.04-1.4,9.71,1.49-1.15,9.18-4.51,11.17-1.29.77-4.02,1.83-4.96,2.6-.58.48-1.17,2-1.76,2.73-2.14,2.66-5.8,3.99-9.17,3.69-1.21-.11-2.9-1.02-3.67-1.02-1.36-.02-4.84,1.17-6.57,1.41-2.58.35-7.98.84-10.15-.62-2.73-1.84.05-4.89,1.7-6.4,2.74-2.52,6.4-4.28,9.59-6.13,1.34-4.42,5.05-7.79,9.78-8ZM12.24,20.42c-.17-.2-2.24,1.51-2.45,1.73-1,1.01-2.13,2.55-1.79,4.05.32,1.4,2.92,1.89,4.15,1.98,6.51.46,19.31-4.22,23.79-9.08s-1.33-6.1-5.32-5.53l-.1.52c1.55,1.62,2.38,3.86,2.52,6.09-4.93,3.05-10.67,5.66-16.47,6.51-.47.07-1.63.31-1.97.27-1.45-.19-2.55-5.24-2.36-6.54Z"/>
        <path class="cls-1" d="M27.15,0c.34,1.49,1.65,2.26,2.86,2.96-1.15.72-2.36,1.47-2.84,2.84l-.42.13c-.36-1.43-1.85-2.16-2.86-3.06,1.26-.5,2.41-1.4,2.85-2.73l.42-.13Z"/>
        <polygon class="cls-1" points="22.46 6.54 21.33 7.96 20.01 6.94 21.34 5.51 22.46 6.54"/>
      </g>
    </g>
  </g>
</svg>