<?xml version="1.0" encoding="UTF-8"?>
<svg id="Layer_2" data-name="Layer 2" xmlns="http://www.w3.org/2000/svg" viewBox="0 0 36.34 32">
  <defs>
    <style>
      .cls-1 {
        fill: #fff;
      }
    </style>
  </defs>
  <g id="Layer_1-2" data-name="Layer 1">
    <g>
      <path class="cls-1" d="M25.62,2.7c7.98-.57,12.02,7.12,10.35,14.21-1.9,8.06-13.64,16.27-21.69,12.46-1.97-.93-3.47-2.68-2.76-4.99.25-.82,1.81-1.5,1.74-2.72-.09-1.4-3.71-2.88-4.05-5.32-1.03-7.42,10.22-13.21,16.41-13.64ZM31.77,7.52c0-1.26-1.02-2.29-2.29-2.29s-2.29,1.02-2.29,2.29,1.02,2.29,2.29,2.29,2.29-1.02,2.29-2.29ZM34.39,13.41c0-1.27-1.03-2.3-2.3-2.3s-2.3,1.03-2.3,2.3,1.03,2.3,2.3,2.3,2.3-1.03,2.3-2.3ZM17.07,15.09c-2.84.59-4.45,5.37-1.32,5.19,3.45-.2,5.28-6.02,1.32-5.19ZM32.82,19.22c0-1.27-1.03-2.3-2.3-2.3s-2.3,1.03-2.3,2.3,1.03,2.3,2.3,2.3,2.3-1.03,2.3-2.3ZM28.34,23.7c0-1.27-1.03-2.3-2.3-2.3s-2.3,1.03-2.3,2.3,1.03,2.3,2.3,2.3,2.3-1.03,2.3-2.3ZM22.65,26.46c0-1.26-1.02-2.29-2.29-2.29s-2.29,1.02-2.29,2.29,1.02,2.29,2.29,2.29,2.29-1.02,2.29-2.29Z"/>
      <path class="cls-1" d="M2.89,0c-.2,1.65,1.25,2.79,1.42,4.57.15,1.63-.76,3.02-.71,3.58.13,1.51,1.62,5.02,2.04,6.89,1.22,5.38,1.83,11.39,1.32,16.88-.57.47-1.29-1.31-1.46-1.69-1.88-4.25-3.2-11.64-3.62-16.3-.15-1.64.09-3.88-.21-5.48-.07-.39-.92-1.2-1.19-1.86C-.55,4.1.01.78,2.89,0ZM2.07,7.32c-.24-.88-.69-1.85-.79-2.77-.12-1.1.12-2.07.08-3.13-1.11,1.24-.98,3.54-.28,4.95.19.39.45.99.99.94ZM4.29,13.4c.23-.27-1.19-5.25-1.51-5.27l-.53.5.42,4.99,1.61-.22Z"/>
    </g>
  </g>
</svg>