<?xml version="1.0" encoding="UTF-8"?>
<svg id="Layer_2" data-name="Layer 2" xmlns="http://www.w3.org/2000/svg" viewBox="0 0 36.67 32">
  <defs>
    <style>
      .cls-1 {
        fill: #fff;
      }
    </style>
  </defs>
  <g id="Layer_1-2" data-name="Layer 1">
    <g>
      <path class="cls-1" d="M1.57.06L34.74,0c.79-.05,1.39.43,1.76,1.07l.16,23.14c.05.83-.51,1.46-1.17,1.87l-33.67.15c-.8-.33-1.57-.88-1.62-1.82.5-7.24-.65-15.35,0-22.49C.29.97.64.4,1.57.06ZM35.24,1.84H1.63v20.45h33.61V1.84Z"/>
      <polygon class="cls-1" points="22.68 27.14 22.68 30.08 25.29 30.41 25.72 32 11.14 32 11.54 30.47 14.18 30.08 14.18 27.14 22.68 27.14"/>
      <rect class="cls-1" x="3.45" y="4.26" width="6.48" height="1.42"/>
      <rect class="cls-1" x="3.45" y="7.1" width="6.48" height="1.42"/>
      <rect class="cls-1" x="3.45" y="9.93" width="6.48" height="1.42"/>
      <rect class="cls-1" x="3.45" y="12.77" width="6.48" height="1.42"/>
      <rect class="cls-1" x="3.45" y="18.44" width="6.48" height="1.42"/>
      <rect class="cls-1" x="3.45" y="15.6" width="6.48" height="1.42"/>
      <path class="cls-1" d="M17.83,18.44v1.42h-2.94c-.46-.33-.29-.93-.3-1.42h3.24Z"/>
      <polygon class="cls-1" points="17.83 12.77 17.83 14.18 14.79 14.18 14.59 12.77 17.83 12.77"/>
      <rect class="cls-1" x="12.56" y="9.93" width="3.04" height="1.42"/>
      <rect class="cls-1" x="12.56" y="15.6" width="3.04" height="1.42"/>
      <rect class="cls-1" x="12.56" y="4.26" width="3.04" height="1.42"/>
      <rect class="cls-1" x="14.79" y="7.1" width="3.04" height="1.42"/>
      <rect class="cls-1" x="21.26" y="12.76" width="1.83" height="1.42" transform="translate(-.02 .03) rotate(-.08)"/>
      <rect class="cls-1" x="21.26" y="7.1" width="1.83" height="1.42" transform="translate(-.01 .03) rotate(-.08)"/>
      <rect class="cls-1" x="21.26" y="18.43" width="1.83" height="1.42" transform="translate(-.03 .03) rotate(-.08)"/>
    </g>
  </g>
</svg>