<?xml version="1.0" encoding="UTF-8"?>
<svg id="Layer_2" data-name="Layer 2" xmlns="http://www.w3.org/2000/svg" viewBox="0 0 32.19 32">
  <defs>
    <style>
      .cls-1 {
        fill: #fff;
      }
    </style>
  </defs>
  <g id="Layer_1-2" data-name="Layer 1">
    <g>
      <path class="cls-1" d="M17.19,26.89c.47.53-1.8,2.27-2.13,2.72L0,14.55c.46-.33,2.19-2.6,2.72-2.13l-.34,1.02.77-.51.66.5c8.61-7.65,20.01,3.75,12.38,12.38l.49.66-.51.68c.39.57.54-.36,1.02-.25ZM5.96,18.04l1.3-.84,1.08.92c-.15.24-.64.38-.42.77.23.42.48-.39.83-.33l.95.95c.07.38-1.07.95-.93,1.25.16.34.37-.05.51-.17.2-.17.56-.71.83-.67l.95.95-.33.83.77-.39.86.82c.36.35-1.48,1.38-.69,1.53l1.19-1.02.6.6c.58.35,1.26-1,1.44-1.45,2.28-5.49-4.61-10.06-8.76-5.87l.84.85-1.02,1.28Z"/>
      <g>
        <path class="cls-1" d="M25.7,0l1.29.16.07,3.07c.58-.04,1.21.05,1.5.63l-.14,6.01c.66.02.98.13,1.44-.35h1.29s0,.7,0,.7l1.02.08c.16.72-.59.35-1.02.42v.68s-1.29.01-1.29.01c-.43-.42-.63-.42-1.27-.35l1.54,13.87v5.54s-.69,0-.69,0c-.11.1.26,1.4-.34,1.53l-2.21-19.49v-3.83s-1.17.28-1.17.28c.05,2.45-.14,4.86-.37,7.29-.43,4.61-.91,10.3-1.72,14.79-.03.18-.06.64-.32.61l-.07-1.03-.79-.25c-.27-6.49,1.24-12.85,1.54-19.31l-2.55.34v-.68s-1.02,0-1.02,0v-.51h1.02s0-.68,0-.68l2.73.34-.14-6.01c.16-.54,1.18-.66,1.67-.63V0ZM27.1,5.67c0-.44-.36-.8-.8-.8s-.8.36-.8.8.36.8.8.8.8-.36.8-.8Z"/>
        <polygon class="cls-1" points="26.55 9.19 26.55 11.92 26.3 11.91 26.04 11.66 26.04 9.19 26.55 9.19"/>
      </g>
    </g>
  </g>
</svg>