<?xml version="1.0" encoding="UTF-8"?>
<svg id="Layer_2" data-name="Layer 2" xmlns="http://www.w3.org/2000/svg" viewBox="0 0 21.78 32">
  <defs>
    <style>
      .cls-1 {
        fill: #fff;
      }
    </style>
  </defs>
  <g id="Layer_1-2" data-name="Layer 1">
    <g>
      <path class="cls-1" d="M15.92,3.53c-.18.18-.23.56-.22.81,3.42-1.39,5.84-.73,5.67,3.35-.12,2.73-.63,2.68.25,5.57.29.96.21,2.3-.61,3s-3.07-.21-4.29.17c-.75.23-1.61,1.86-2.49,1.98-1.21.17-2.11-1.84-4.41-.99-.64.24-1.38,1-2.1,1-1.08,0-1.79-1.73-2.65-1.99-1.31-.4-3.5.58-4.37-.26-.8-.76-.82-1.93-.53-2.9.86-2.84.39-2.71.25-5.4C.2,3.72,2.54,2.88,6.09,4.34c.13-.93-.53-.81-.94-1.2-.36-.33-1.79-1.88-1.29-2.32C4.86-.06,12.3-.05,13.91.04c.78.05,3.39.35,3.92.71.14.1.3.16.25.38-.36.83-.86,1.49-1.53,2.09-.17.15-.5.18-.63.31ZM16.39,1.08c-.51-.52-6.6-.58-7.64-.52-.8.05-2.26.2-3,.44-.29.1-.41,0-.34.42.51.52,6.6.58,7.64.52.8-.05,2.26-.2,3-.44.29-.1.41,0,.34-.42ZM5.47,6.16c-.75-.8-2.31-1.64-3.24-.62-.99,1.1.04,3.49.26,4.8l.93-.68c4.83,1.7,10.25,1.79,15.12.17l.76.51c.21-1.28,1.33-4.04.07-4.96-1.08-.78-2.8.13-3.47,1.12-.09.45,1.24,1.74,1.52,2.21.09.16.29.12,0,.34-4.26,1.16-8.79,1-13.05-.09l1.53-2.34c.04-.3-.29-.31-.43-.47ZM2.73,14.89c0-.41-.33-.74-.74-.74s-.74.33-.74.74.33.74.74.74.74-.33.74-.74ZM20.54,14.89c0-.41-.33-.74-.74-.74s-.74.33-.74.74.33.74.74.74.74-.33.74-.74ZM8.67,16.44c0-.46-.38-.84-.84-.84s-.84.38-.84.84.38.84.84.84.84-.38.84-.84ZM14.78,16.44c0-.46-.37-.83-.83-.83s-.83.37-.83.83.37.83.83.83.83-.37.83-.83Z"/>
      <path class="cls-1" d="M5.31,18.17c1.09.92,1.47,1.77,3.16,1.33.86-.22,1.57-1.14,2.52-1.1,1.12.05,1.87,1.36,3.44,1.22,1.17-.11,1.98-1.72,3.04-2.13,1.44,0,2.97.75,4.25-.28-.64,4.29-3.01,8.18-6.17,11.07,1.35,1.1.46,2.34-.8,2.98-2.02,1.03-6.51,1.05-8.31-.4-.98-.79-1.23-1.7-.17-2.58C3.08,25.39.72,21.52.09,17.21c1.32,1.3,3.65-.25,4.87.54.16.11.22.31.34.42ZM4.77,18.68c0-.41-.33-.75-.75-.75s-.75.33-.75.75.33.75.75.75.75-.33.75-.75ZM18.51,18.67c0-.41-.34-.75-.75-.75s-.75.34-.75.75.34.75.75.75.75-.34.75-.75ZM11.73,20.39c0-.46-.37-.84-.84-.84s-.84.37-.84.84.37.84.84.84.84-.37.84-.84Z"/>
    </g>
  </g>
</svg>