<?xml version="1.0" encoding="UTF-8"?>
<svg id="Layer_2" data-name="Layer 2" xmlns="http://www.w3.org/2000/svg" viewBox="0 0 37.77 32">
  <defs>
    <style>
      .cls-1 {
        fill: #fff;
      }
    </style>
  </defs>
  <g id="Layer_1-2" data-name="Layer 1">
    <g>
      <path class="cls-1" d="M14.17,8.45c1.91-.4,2.97.76,3.81,2.28,3.26,5.9,3.6,22.17-6.25,21.22C5.17,31.33-.74,20.35.08,14.31c.43-3.18,3.99-2.46,6.24-2.74,3.52-.44,5.31-2.59,7.85-3.12ZM12.38,13.25c-.8.15-1.43.62-.62,1.33.91.1,1.57-.43,2.51-.33,1.55.15,1.95.9,3.06,1.55.26.15.48.23.49-.1-1.16-1.87-3.23-2.85-5.44-2.45ZM3.25,19.99c.45-2.21,1.88-3.61,4.11-3.98l-.1-.92c-2.26-.58-4.61,2.56-4.41,4.6l.4.3ZM18.42,18.59c-1-2.02-4.11-3.22-5.64-1.15l-.15,2.15c1.79-1.45,3.59-1.85,5.79-1ZM9.04,20.58c-1.13-4.2-5.71-1.04-5.19,2.2l1.3-1.4c1.16-.9,2.5-.85,3.89-.8ZM16.03,23.98c-1.14.48-2.16,1.13-3.35,1.54-1.4.48-2.79.67-4.23.95,3.02,3.99,7.6,2.6,7.58-2.49Z"/>
      <path class="cls-1" d="M21.02,17.79c2.58-.04,4.7,1.29,6.49,2.99.35-1.37-.75-3.32-1.96-4.03-1.69-.99-3.02-.5-4.73.04-.2-3.01-1.04-6.17-2.96-8.53.09-2.06,2.02-7.86,4.27-8.23s4.78,2.03,6.88,2.68,6.76.22,7.98,1.6c2.18,2.45-.75,9.31-2.16,11.81-2.63,4.65-8.47,10.37-13.78,5.91l-.03-4.25ZM26.18,6.19l.19-.64c-1.81-1.83-5.25-.26-6.35,1.77.06.32.24.27.5.1,1.02-.67,1.58-1.48,3.02-1.58.97-.07,1.67.57,2.64.36ZM34.99,11.6c-.06-2.29-1.92-5.55-4.51-4.8l-.2.42.33.48c2.13.29,3.4,1.69,3.78,3.77l.6.13ZM19.42,10.2c1.89-.78,4.07-.58,5.49,1,.59-.53.3-1.69-.1-2.29-1.28-1.94-4.72-.62-5.39,1.3ZM33.99,14.4c-.04-1.98-1.09-4.11-3.29-4.2-1.11.13-1.93.9-2.1,2.01,2.31-.24,4,.34,5.39,2.2Z"/>
    </g>
  </g>
</svg>