<?xml version="1.0" encoding="UTF-8"?>
<svg id="Layer_2" data-name="Layer 2" xmlns="http://www.w3.org/2000/svg" viewBox="0 0 15.51 32">
  <defs>
    <style>
      .cls-1 {
        fill: #fff;
      }
    </style>
  </defs>
  <g id="Layer_1-2" data-name="Layer 1">
    <g>
      <path class="cls-1" d="M10.27,9.02c.29.08.42.56.17.79l-.52.26.03,6.55c1.62.81,3.11,1.57,4.16,3.12,4.68,6.92-3.2,15.42-10.39,11.08-4.7-2.84-5-9.77-.5-12.93.73-.51,1.61-.77,2.3-1.27l.03-6.54-.52-.26c-.27-.26-.04-.79.17-.79h5.08ZM7.45,9.98h-1.1v6.59l1.1-.14v-6.45ZM7.77,19.32c0-.6-.48-1.08-1.08-1.08s-1.08.48-1.08,1.08.48,1.08,1.08,1.08,1.08-.48,1.08-1.08ZM3.75,19.32c-.29-.07-.31.16-.44.31-2.33,2.57-2.11,6.86.65,9.02,4.13,3.22,10.08.11,9.81-5.07-1.83.46-3.5.84-5.43.69-1.78-.14-3.59-1.05-5.42-.96-.09-1.38.15-2.77.82-3.98ZM10.35,21.41c0-.39-.31-.7-.7-.7s-.7.31-.7.7.31.7.7.7.7-.31.7-.7Z"/>
      <path class="cls-1" d="M5.98,2.17c0,1.2-.97,2.17-2.17,2.17s-2.17-.97-2.17-2.17S2.62,0,3.82,0s2.17.97,2.17,2.17ZM5.07,2.16c0-.69-.56-1.25-1.25-1.25s-1.25.56-1.25,1.25.56,1.25,1.25,1.25,1.25-.56,1.25-1.25Z"/>
      <path class="cls-1" d="M14.62,8.32c0,.83-.67,1.5-1.5,1.5s-1.5-.67-1.5-1.5.67-1.5,1.5-1.5,1.5.67,1.5,1.5ZM14.12,8.31c0-.55-.45-.99-.99-.99s-.99.45-.99.99.45.99.99.99.99-.45.99-.99Z"/>
      <path class="cls-1" d="M6.78,7.27c0,.65-.53,1.18-1.18,1.18s-1.18-.53-1.18-1.18.53-1.18,1.18-1.18,1.18.53,1.18,1.18ZM6.17,7.27c0-.3-.25-.55-.55-.55s-.55.25-.55.55.25.55.55.55.55-.25.55-.55Z"/>
      <path class="cls-1" d="M10.06,5.45c-.21-.57.33-.56.4-.77.19-.56-.35-.75-.82-.55l-.13.77h-.41c.01-.2-.03-.42,0-.62.1-.75,1.09-1.04,1.59-.49.58.63.22,1.57-.63,1.66Z"/>
    </g>
  </g>
</svg>