<?xml version="1.0" encoding="UTF-8"?>
<svg id="Layer_2" data-name="Layer 2" xmlns="http://www.w3.org/2000/svg" viewBox="0 0 30.05 32">
  <defs>
    <style>
      .cls-1 {
        fill: #fff;
      }
    </style>
  </defs>
  <g id="Layer_1-2" data-name="Layer 1">
    <g>
      <path class="cls-1" d="M8.91,5.72l.2.38-.47.99c-1.97.15-5.02.3-5.27,2.8,1.09.32,1.94,1.66,1.73,2.77-.17.89-1.14,1.37-.02,2.18l3.27-3.11c.56-2.76,1.14-5.73,2.58-8.18,3.71-6.3,8.71-3.38,10.49,2.35l1.45-.27c.69-1.54,2.53-2.09,3.93-1,.86.67.6,1.22.99,1.74.21.27.73.37,1.02.62,2.46,2.15.77,6.37-1.1,8.4l-.95-1c1.05-1.83,2.37-4.42.4-6.11-.91,1-2.36,1.18-3.47.36-.7-.52-.92-2.03-1.73-1.19l1,4.29c1.16,1.03,2.41,1.95,3.47,3.1,6.46,7.08,4.12,12.97-5.94,11.04-5.51-1.06-10.86-4.3-14.88-8.13l.74-1.27,1.64,1.64c.6.03.09-.37.09-.45v-3.1l1.46-1.19v5.38c0,.2.28.8.47.99,1.21,1.18,4.01,2.2,5.5,3.09l5.34-2.71-.55,1.91-2.74,1.37c-.23.3,2.71,1.13,3.09.89.43-1.7.89-3.45,1.09-5.21.51-4.5-.23-13.15-3.99-16.22-2.87-2.35-5.53.68-6.39,3.38l4.29,1.25,3.64-1.08.47,1.29c-5.51,1.35-11.67,4.91-14.93,9.62-2.85,4.1-2,7.62,3.53,7.35l.82,1.46c-7.62,1.24-10.2-4.19-5.38-9.86l.07-.4-.71-.95c-2.1.05-3.8-1.47-2.93-3.67.22-.57.86-.83,1.01-1.18.28-.64.13-1.5.64-2.28.59-.91,2.68-2.1,3.74-2.1h3.28ZM13.75,8.28l-2.93-.66-.72,2.84,3.65-2.19ZM23.24,18.13l2.15-2.1c.03-.37-1.66-1.97-2.15-2.1v4.2ZM21.96,24.7h2.83c.6,0,2.05-.65,2.5-1.09,1.82-1.79.43-4.69-.87-6.39l-3.38,2.86-1.08,4.62Z"/>
      <path class="cls-1" d="M14.66,24.52c.07.47-.04.28-.26.38-.51.23-2.97.72-3.03.99.86,2.06,2.43,4.22,4.93,4.1-.09-1.56.64-2.66,2.14-3.06.34-.09.72.02,1.02-.05.14-.03.12-.33.25-.36.5-.12,1.03.17,1.52.18-.69,1.15-.04,1.3.14,2.14.33,1.51-.73,3-2.26,3.14-.74.07-1.1-.32-1.63-.35-.64-.03-1.27.41-2.15.34-3.99-.33-6.39-7.4-6.68-10.75,1.62.63,1.6,1.61,2.18,3.02,1.48,0,2.36-.55,3.83.27Z"/>
      <path class="cls-1" d="M19.32,15.97c0,2.01-1.63,3.63-3.63,3.63s-3.63-1.63-3.63-3.63,1.63-3.63,3.63-3.63,3.63,1.63,3.63,3.63ZM16.57,15.12c0-.74-.6-1.34-1.34-1.34s-1.34.6-1.34,1.34.6,1.34,1.34,1.34,1.34-.6,1.34-1.34Z"/>
      <path class="cls-1" d="M20.68,11.74l-4.19-2.28,1.55-.75c1.41.68,2.88,1.13,2.64,3.03Z"/>
    </g>
  </g>
</svg>