<?xml version="1.0" encoding="UTF-8"?>
<svg id="Layer_2" data-name="Layer 2" xmlns="http://www.w3.org/2000/svg" viewBox="0 0 35.82 32">
  <defs>
    <style>
      .cls-1 {
        fill: #fff;
      }
    </style>
  </defs>
  <g id="Layer_1-2" data-name="Layer 1">
    <g>
      <g>
        <path class="cls-1" d="M6.59,0l.77.25,28.46,23.18-.14.9-29.53.09-.27-.83.1-23.26.6-.34ZM32.55,22.94L7.56,2.73v15.16l.28.28h4.04l.46.46v4.32h20.22ZM10.68,19.82h-3.12v3.12h3.12v-3.12Z"/>
        <path class="cls-1" d="M19.69,28.09c2.13-.94,3.95,1.24,2.66,3.12-.72,1.04-2.42.87-3.5.57-.02-.98-.39-5.38.28-5.81l.47.09.09,2.03ZM20.37,28.86c-.25.05-.57.19-.66.45v1.42s1.22.36,1.22.36c.64-.13.94-.73.88-1.36-.2-.83-.61-1.05-1.44-.87Z"/>
        <path class="cls-1" d="M2,11.03c.62-.07,1.22.2,1.6.69-.05.69-.17,1.41-.07,2.11.07.5.7.97.08,1.39-.94-.55-.97-.1-1.67,0-2.48.35-2.7-3.87.06-4.19ZM2.59,11.91c-1.01-.1-1.62.56-1.65,1.55l.36.75,1.21-.08.08-2.22Z"/>
      </g>
      <path class="cls-1" d="M24.28,6.95l-1.6-.24-.8,1.44.1.64c.66.91,1.73-.3,2.3.09v.56c-4.58,2.79-3.99-5.1-.44-3.42.49.23.49.37.44.94Z"/>
    </g>
  </g>
</svg>