<?xml version="1.0" encoding="UTF-8"?>
<svg id="Layer_2" data-name="Layer 2" xmlns="http://www.w3.org/2000/svg" viewBox="0 0 26.28 32">
  <defs>
    <style>
      .cls-1 {
        fill: #fff;
      }
    </style>
  </defs>
  <g id="Layer_1-2" data-name="Layer 1">
    <g>
      <path class="cls-1" d="M7.17,16.06c3.78.17,5.16,4.47,3.12,7.37-.49.7-1.34,1.2-1.92,1.82.52,2.06.56,5.29-1.63,6.43s-5.81-.72-4.13-3.27c1.88-1.56,4.13.64,2.64,2.55,2.73-.3,2.4-3.44,2.04-5.46-2.4.55-4.91-.03-6.29-2.17-2.99-4.65,1.27-9.73,4.21-13.16.06-2.76-.17-5.37.91-7.97,1.3-3.12,3.29-2.81,4.03.36.66,2.8-.14,5.38-1.52,7.78-.35.61-1.69,2.21-1.8,2.64s.09,2.94.33,3.09ZM6.29,8.74c.27.33,1.98-1.99,2.12-2.24.79-1.37.84-3.08-.35-4.25-.48-.1-1.07,1.51-1.18,1.87-.18.59-.81,4.36-.6,4.61ZM5.77,14.38c-.33-.09-.33.14-.48.29-1.08,1.07-2.92,3.77-3.11,5.26-.41,3.28,1.38,5.13,4.67,4.33l.27-.23-.93-5.37c-1.63.46-2.29,1.97-2.13,3.59-1.7-2.05-.29-5.01,1.97-5.97l-.26-1.89ZM7.48,18.82l.77,4.61c1.45-1.16,1.27-4.3-.77-4.61Z"/>
      <path class="cls-1" d="M18.93,6.18l1.17.03c1.11,2.82,4.35,4.44,5.58,7.15,1.36,2.99.3,6.03-2.31,7.86.8-1.66,1.7-3.09,1.53-5.04-.2-2.39-2.68-4.53-4.78-5.39v14.27c0,.75-2.02,2.27-2.77,2.53-1.63.55-4.69.52-4.12-1.89.5-2.12,3.72-3.41,5.7-2.77V6.18Z"/>
    </g>
  </g>
</svg>