<?xml version="1.0" encoding="UTF-8"?>
<svg id="Layer_2" data-name="Layer 2" xmlns="http://www.w3.org/2000/svg" viewBox="0 0 25.64 32">
  <defs>
    <style>
      .cls-1 {
        fill: #fff;
      }
    </style>
  </defs>
  <g id="Layer_1-2" data-name="Layer 1">
    <path class="cls-1" d="M15.52,8.04c-.08.13-.32,2.68-.35,3.08-.02.25-.07.68.08.88,1.53-1.37,3.52-2.37,5.51-2.88.04-.27-.38-.17-.55-.16-.87.07-2.04.46-2.83.84-.21.1-.98.72-1.08.59-.23-1.24.95-2.1,1.91-2.64,2.28-1.26,4.99-1.18,7.43-1.99.16,2.36-1.33,4.73-3.29,5.97-1.72,1.09-4.3,1.69-5.66-.22-.5.62-1.57,1.28-1.8,2.03-.59,1.93-.43,4.78-.04,6.75h-1.28s-.02-1.33-.02-1.33l-.38-.26c-1.43-.01-2.9.24-4.21.82v.51c.05.17.17.25.31.34.91.63,5.09.79,6.31.73.8-.04,3.99-.37,4.31-1.12l-.13-.44c-1.35-.67-2.92-.84-4.42-.85l-.17-.95c1.4.07,6.04.29,6.52,1.87-.06.74-.02,2.11-.45,2.68-.19.26-.52.33-.64.48-.69.82-.77,6.78-1.43,8.15-.32.45-2.24.95-2.83,1.01-1.28.13-6.17.17-6.81-1.14l-1.33-7.93c-1.18-.61-.94-1.96-1.16-3.09.26-1.77,5.15-1.93,6.52-2.03l.24-3.68-1.19-.63c-.11,1.23-1.21,2.06-2.33,2.38-4.24,1.21-8.85-1.49-10.28-5.57,3.34,0,6.56-1.3,9.9-.57,1.28.28,2.92.93,2.87,2.48l-2.79-.32-2.95.48c2.36-.03,4.79-.06,7.02.8.16-3.02,1.66-6.71-.64-9.26.39,1.48.79,2.98.61,4.53l-.31.2C10.55,7.15,11.13,2.84,10.22.02c3.29-.4,8.21,4.2,6.04,7.4-.23.34-.71.57-.74.62Z"/>
  </g>
</svg>