<?xml version="1.0" encoding="UTF-8"?>
<svg id="Layer_2" data-name="Layer 2" xmlns="http://www.w3.org/2000/svg" viewBox="0 0 26.85 32">
  <defs>
    <style>
      .cls-1 {
        fill: #fff;
      }
    </style>
  </defs>
  <g id="Layer_1-2" data-name="Layer 1">
    <g>
      <path class="cls-1" d="M26.56,32l-26.14-.04C.11,31.59,0,31.19,0,30.71c.01-7.31.82-14.74.64-22.07C.59,6.27-.02,3.29.05,1.02c.01-.37.24-.67.47-.93l25.67-.08.43.39c.27.37.22.83.21,1.25-.07,2.46-.6,5.17-.64,7.61-.1,6.21.48,12.56.64,18.76.02.75.13,3.58-.26,3.98ZM24.96,7.73l.41-5.46-.31-.52H1.77l-.32.71.42,5.27h23.09ZM6,13.29c.65-3.06.31-3.62-2.79-3.31-1.78.18-1.11,1.97-.92,3.31h3.71ZM8.82,10.03c-.86.25-.7,2.73-.27,3.07h3.74s-.2-2.93-.2-2.93l-3.28-.14ZM15,10.03c-.86.25-.7,2.73-.27,3.07h3.74s-.2-2.93-.2-2.93l-3.28-.14ZM24.73,10.23l-3.68-.13c-1.55,3.55.65,3.46,3.52,3.11l.16-2.97ZM2.42,15.59l-.25.16.11,2.8c.44.45,3.37.48,3.74.01v-2.92s-3.6-.06-3.6-.06ZM8.6,15.59l-.25.16.11,2.8c.47.47,3.47.49,3.82-.11l-.09-2.8-3.59-.06ZM14.65,15.56l-.17,2.75c.27.81,3.63.75,3.99.14l.1-2.37-.31-.52h-3.61ZM24.44,15.56h-3.61l.05,3.04,3.46.15.37-.45-.27-2.74ZM2.29,24.22h3.61c.55-.71.39-2.2.12-3.01-.32-.41-3.05-.42-3.53-.19-.73.35-.41,2.48-.21,3.2ZM12.18,24.22c.19,0,.28-2.36.16-2.74-.26-.87-3.2-.7-3.9-.27-.35.44-.4,2.66.33,3.01h3.4ZM15,20.96c-.86.25-.7,2.73-.27,3.07h3.74s-.2-2.93-.2-2.93l-3.28-.14ZM24.75,21.12l-3.57-.17c-.48.16-.52.86-.56,1.3-.08.94-.09,6.73.2,7.19.94.6,2.45.36,3.52.24l.42-.41v-8.14ZM2.33,26.53l-.05,2.95c.45.45,3.37.48,3.74.01v-2.91c-.46-.45-3.28-.45-3.68-.05ZM9.03,26.32c-.28.06-.64.22-.73.5l.07,2.55c.33.57,3.29.57,3.73.22l.19-2.91c-.33-.56-2.64-.5-3.25-.36ZM14.7,29.53l3.58.07.19-2.91c-.35-.59-3.35-.57-3.77-.15v2.99Z"/>
      <polygon class="cls-1" points="11.36 2.57 8.88 6.9 2.9 6.9 2.7 2.57 11.36 2.57"/>
      <path class="cls-1" d="M24.14,2.57l-.21,4.33h-10.93l2.78-4.33h8.35ZM17.33,6.49l2.08-.09c.29-.21.5-2.58.3-3-.32-.65-2-.6-2.37.1v2.99ZM21.6,3.03c-.24.07-.44.27-.51.51l-.23,2.61.5.33,1.76-.09.31-3c-.25-.52-1.34-.51-1.82-.37Z"/>
      <polygon class="cls-1" points="14.45 2.57 11.98 6.6 10.94 6.9 13.52 2.78 14.45 2.57"/>
      <polygon class="cls-1" points="18.98 3.81 18.98 5.87 17.95 5.87 18.04 4 18.98 3.81"/>
      <rect class="cls-1" x="21.66" y="3.8" width="1.04" height="2.07" transform="translate(0 .03) rotate(-.07)"/>
    </g>
  </g>
</svg>