<?xml version="1.0" encoding="UTF-8"?>
<svg id="Layer_2" data-name="Layer 2" xmlns="http://www.w3.org/2000/svg" viewBox="0 0 18.75 32">
  <defs>
    <style>
      .cls-1 {
        fill: #fff;
      }
    </style>
  </defs>
  <g id="Layer_1-2" data-name="Layer 1">
    <g>
      <path class="cls-1" d="M8,6.62v1.46s.25.36.25.36c3.37-.08,6.46-.23,8.64,2.74,3.36,4.57,1.81,11.94-1.94,15.84l.43,1.6h-7.23v-4.54c0-.2-2.14-2.59-1.69-3.46H0l.02-1.29.36-.25,9.7.14c.09,2.01,1.05,2.78,3.06,2.46,2.66-.42,3.15-7.53.37-8.35-1.33-.39-2.03.18-2.85,1.1-.51.01-1.17.1-1.67.04-.61-.08-.87-.46-.85-1.08h-1.53s0,2.38,0,2.38c0,.35-.54.76-.68,1.01-.13.23-.14.87-.34.92l-1.14-.07c-.21-.14-.08-.6-.22-.85-.08-.14-.69-.4-.69-.7V6.62h4.46ZM9.5,9.41c-1.45.3-1.19,2.87.86,2.25.98-.3.7-2.58-.86-2.25Z"/>
      <path class="cls-1" d="M.46,32c.08-.92-.39-2.41.86-2.61,4.78.33,10.23-.48,14.92-.02,1.47.14.77,1.24,1.11,2.28l-.2.35H.46Z"/>
      <path class="cls-1" d="M7.08,0c.09.46-.26.72-.32,1.15-.07.5-.05,3.94.09,4.24.12.27.6.37.54.77h-3.85c.09-.38.54-.63.61-1,.12-.61.1-3.64.02-4.32-.03-.26-.17-.19-.33-.3l.24-.53h3Z"/>
    </g>
  </g>
</svg>