<?xml version="1.0" encoding="UTF-8"?>
<svg id="Layer_2" data-name="Layer 2" xmlns="http://www.w3.org/2000/svg" viewBox="0 0 46.82 32">
  <defs>
    <style>
      .cls-1 {
        fill: #fff;
      }
    </style>
  </defs>
  <g id="Layer_1-2" data-name="Layer 1">
    <g>
      <path class="cls-1" d="M0,1.57h1.68S2.28.11,2.28.11c5.82.51,12.92-.87,18.52.57.77.2,1.74.9,2.48.91.82,0,1.72-.66,2.53-.86,5.68-1.4,12.36-.18,18.24-.61.88-.04.98.73,1.1,1.43l1.66.03v29.2h-18.7l-1.44,1.23-6.53-.02-1.44-1.21H0V1.57ZM22.44,3.26c-.89-.13-2.74-1.21-3.5-1.21H3.38v25.1h15.81c.81,0,2.48.83,3.26,1.21V3.26ZM43.2,2.06h-15.32c-.6,0-3.24,1.03-3.74,1.57v24.37l.49.26c.67-.38,2.32-1.1,3.01-1.1h15.57V2.06Z"/>
      <path class="cls-1" d="M28.12,14.12h12.79l.36.37-.36.6h-13.27c-.08,0-.28.27-.46.23l-.38-.59,1.33-.61Z"/>
      <path class="cls-1" d="M28.12,16.54h12.79l.36.37-.36.6h-13.51c-.07,0-.15.22-.24.21l-.36-.57,1.33-.61Z"/>
      <path class="cls-1" d="M41.03,11.71l.24.6-.6.36-13.5.23-.37-.59c.04-.18,1.17-.61,1.33-.61h12.91Z"/>
      <path class="cls-1" d="M28.36,9.3h12.55l.36.37-.36.6h-13.51c-.07,0-.15.22-.24.21l-.12-.82,1.33-.36Z"/>
      <path class="cls-1" d="M26.79,19.91v-.72c.52.23,1.31-.24,1.57-.24h12.55l.36.37-.36.6h-14.12Z"/>
      <path class="cls-1" d="M26.79,22.33v-.72c.52.23,1.31-.24,1.57-.24h12.55l.36.37-.36.6h-14.12Z"/>
      <path class="cls-1" d="M26.79,7.85l.24-.6c.42.03,1.32-.36,1.57-.36h12.31l.36.37-.36.6h-14.12Z"/>
      <path class="cls-1" d="M41.03,4.47l-.12.97h-14.12l.24-.6c.42.03,1.32-.36,1.57-.36h12.43Z"/>
      <path class="cls-1" d="M26.79,24.74l.24-.61c.49.04,1.52-.36,1.81-.36h12.07l.36.37-.36.6h-14.12Z"/>
      <path class="cls-1" d="M5.55,4.95h7v7.96h-7v-7.96ZM9.63,6.19l-1.3.21-1.81,5.31,1.17-.03.3-1.15h1.87s.52,1.06.52,1.06l.97.12-1.71-5.52Z"/>
      <path class="cls-1" d="M5.91,14.36h12.79c.19,0,.77.37,1.09.36l-.12.61H5.91l-.36-.37.36-.6Z"/>
      <path class="cls-1" d="M20.03,24.74H5.91l-.36-.37.36-.6h12.07c.29,0,1.33.4,1.81.36l.24.61Z"/>
      <path class="cls-1" d="M5.91,21.36h12.31c.24,0,1.15.39,1.57.36l-.13.61H5.91l-.36-.37.36-.6Z"/>
      <polygon class="cls-1" points="19.79 19.19 20.03 19.79 19.43 20.17 5.55 19.91 5.55 19.19 19.79 19.19"/>
      <path class="cls-1" d="M19.43,16.78l.6.6c-.65.77-1.67.14-2.52.11-3.98-.13-7.98.12-11.96,0v-.72h13.88Z"/>
      <path class="cls-1" d="M14.24,4.95h4.95c.09,0,.84.53.84.6l-.36.36h-5.07l-.36-.97Z"/>
      <path class="cls-1" d="M14.6,11.95h3.86c.22,0,.96.38,1.33.36l-.13.61h-5.07l-.36-.37.36-.6Z"/>
      <path class="cls-1" d="M14.24,10.5v-.72h5.43l.36.6-.38.36c-.46.14-.81-.23-.95-.23h-4.46Z"/>
      <path class="cls-1" d="M19.79,7.36l-.12.97c-.45.12-.83-.24-.96-.24h-4.46v-.72h5.55Z"/>
    </g>
  </g>
</svg>