<svg width="17" height="15" viewBox="0 0 17 15" fill="none" xmlns="http://www.w3.org/2000/svg">
<path d="M3.62 4.06C4.60307 4.06 5.4 3.26307 5.4 2.28C5.4 1.29693 4.60307 0.5 3.62 0.5C2.63693 0.5 1.84 1.29693 1.84 2.28C1.84 3.26307 2.63693 4.06 3.62 4.06Z" stroke="#A6A6A6" stroke-miterlimit="10"/>
<path d="M1.46 14.5H5.77V9.63C6.71 9.57 6.74 8.85 6.74 8.85V6.11C6.7 5.21 5.85 5.31 5.85 5.31H1.41C0.51 5.31 0.5 6.11 0.5 6.11V8.85C0.5 9.58 1.46 9.63 1.46 9.63V14.5Z" stroke="#A6A6A6" stroke-miterlimit="10"/>
<path d="M12.31 4.06C13.2931 4.06 14.09 3.26307 14.09 2.28C14.09 1.29693 13.2931 0.5 12.31 0.5C11.3269 0.5 10.53 1.29693 10.53 2.28C10.53 3.26307 11.3269 4.06 12.31 4.06Z" stroke="#A6A6A6" stroke-miterlimit="10"/>
<path d="M11.11 5.31H13.41C13.41 5.31 14.41 5.21 14.55 6.08L15.45 12.1H13.89V14.5H10.75V12.1H9.16L10.1 6.08C10.26 5.25 11.12 5.31 11.12 5.31H11.11Z" stroke="#A6A6A6" stroke-miterlimit="10"/>
</svg>
