<svg width="89" height="89" viewBox="0 0 89 89" fill="none" xmlns="http://www.w3.org/2000/svg">
<g clip-path="url(#clip0_1092_1334)">
<path d="M37.749 74.5827H30.2294L29.5942 69.3856C21.699 68.9669 13.3871 66.358 6.55041 62.3418C-5.08761 55.497 2.66424 54.4328 6.93971 45.501C-29.2174 11.126 11.4406 -45.1907 55.0763 -20.901C57.8219 -22.7135 61.1002 -31.2883 64.6107 -30.9931C69.4872 -30.5812 81.1321 -14.7565 83.3859 -10.088C100.406 25.2138 76.8566 66.3992 38.3842 69.3856L37.749 74.5827ZM64.7883 -22.1711L61.0661 -16.4866C97.1139 17.7786 56.7496 73.5735 12.909 49.9772L8.38081 55.0164C45.3028 79.4983 92.2579 44.1073 80.4218 1.13001C78.1748 -7.03979 72.1987 -17.8665 64.7883 -22.1642V-22.1711ZM41.8538 -14.6741L40.4673 -18.7865L38.7667 -16.7337L38.111 -17.9901L33.9448 -16.768L32.975 -12.6213L37.7422 -16.7406L39.115 -9.88206L35.7001 -9.86833L37.0661 -7.13591C32.3193 -5.67358 24.6699 -3.55904 23.3996 1.79596L22.6961 -1.60241C18.967 -2.37133 14.3228 -4.47214 14.1383 1.13001L15.2175 2.88755L18.6324 2.49622L16.5971 4.89224L18.5709 6.02503L18.1065 8.23568C19.3836 11.3732 22.4434 9.34101 24.6563 9.81472C26.7325 10.261 33.5965 14.9638 35.0581 16.5428C35.9187 17.4765 36.1167 18.8908 37.1344 19.948C39.3472 22.2411 42.9192 22.2617 45.2823 24.129L39.1628 33.0678C33.7126 32.3538 33.5897 38.5944 28.2078 38.1962L28.8976 39.5555C23.2903 39.535 20.3603 47.0388 27.3472 48.3226C39.6614 50.5814 53.3074 45.6589 60.9773 35.7659C65.3962 30.0676 67.0558 24.8499 66.407 17.655L58.9556 17.9708C53.4303 13.2268 55.3222 2.48936 61.3461 -0.785429C62.4047 -0.703045 63.2926 2.71592 65.0752 0.0864735L59.9869 -5.55L58.3273 -4.98704L58.2522 0.422878L55.6295 -2.78326C58.3273 -6.07864 53.5259 -7.01233 51.798 -9.21612C48.8338 -12.9921 50.5481 -18.3677 42.5572 -18.8002L41.8811 -14.6878L41.8538 -14.6741ZM22.0336 -17.4065C-7.1024 -7.91856 -7.73758 35.8688 21.3506 45.7413C20.0257 44.2927 19.8071 39.9469 19.971 37.8941C20.2169 34.791 21.9585 31.4407 21.3438 28.262C20.975 26.3328 16.1122 21.9596 15.9004 18.5818C15.6682 14.9294 19.9642 14.8745 19.9847 11.435L16.5288 9.74607C16.0234 4.1851 10.4093 3.6908 10.3615 -1.95941C10.3341 -5.33718 12.7246 -7.88423 13.831 -10.8981L22.0336 -17.4065Z" fill="white" fill-opacity="0.2"/>
<path d="M56.1829 89H11.7891C11.8642 85.0799 13.8039 80.0956 17.9154 79.0246C21.1801 78.1733 45.9723 78.1321 49.5375 78.8598C54.2159 79.8141 55.8004 84.7915 56.1829 89Z" fill="white" fill-opacity="0.2"/>
</g>
<defs>
<clipPath id="clip0_1092_1334">
<rect width="96" height="120" fill="white" transform="translate(-7 -31)"/>
</clipPath>
</defs>
</svg>
