<svg width="22" height="22" viewBox="0 0 22 22" fill="none" xmlns="http://www.w3.org/2000/svg">
<path d="M20.1668 10.9999C20.1668 5.93731 16.0628 1.83325 11.0002 1.83325C5.93755 1.83325 1.8335 5.93731 1.8335 10.9999C1.8335 16.0625 5.93755 20.1666 11.0002 20.1666C16.0628 20.1666 20.1668 16.0625 20.1668 10.9999Z" stroke="#939393" stroke-width="1.5"/>
<path d="M8.7085 7.99164C8.83211 7.66568 9.01891 7.3735 9.25293 7.13192C9.68147 6.68952 10.2684 6.41675 10.9158 6.41675C12.228 6.41675 13.2918 7.53742 13.2918 8.91984C13.2918 10.123 12.486 11.1279 11.4119 11.3683C11.1424 11.4286 10.9158 11.6468 10.9158 11.9229V12.8334" stroke="#939393" stroke-width="1.5" stroke-linecap="round"/>
<path d="M11.0002 16.729C11.5064 16.729 11.9168 16.3187 11.9168 15.8124C11.9168 15.3062 11.5064 14.8958 11.0002 14.8958C10.4939 14.8958 10.0835 15.3062 10.0835 15.8124C10.0835 16.3187 10.4939 16.729 11.0002 16.729Z" fill="#939393"/>
</svg>
