<svg width="8" height="16" viewBox="0 0 8 16" fill="none" xmlns="http://www.w3.org/2000/svg">
<path d="M4.12 4.56C5.10307 4.56 5.9 3.76307 5.9 2.78C5.9 1.79693 5.10307 1 4.12 1C3.13693 1 2.34 1.79693 2.34 2.78C2.34 3.76307 3.13693 4.56 4.12 4.56Z" stroke="#A6A6A6" stroke-miterlimit="10"/>
<path d="M1.96 15H6.27V10.13C7.21 10.07 7.24 9.35 7.24 9.35V6.61C7.2 5.71 6.35 5.81 6.35 5.81H1.91C1.01 5.81 1 6.61 1 6.61V9.35C1 10.08 1.96 10.13 1.96 10.13V15Z" stroke="#A6A6A6" stroke-miterlimit="10"/>
</svg>
