<svg width="14" height="14" viewBox="0 0 14 14" fill="none" xmlns="http://www.w3.org/2000/svg">
<path d="M1.19873 6.96982C1.19873 10.1915 3.8104 12.8032 7.03206 12.8032C9.64077 12.8032 11.8495 11.0907 12.5956 8.72865C12.6908 8.42721 12.4531 8.13652 12.137 8.13652H10.6666C10.4574 8.13652 10.2733 8.26831 10.1821 8.45658C9.63247 9.59123 8.4787 10.4698 7.03206 10.4698C4.69873 10.4698 3.53206 8.42815 3.53206 6.96982C3.53206 5.68563 4.31737 4.40144 5.54221 3.80878C5.73173 3.71708 5.8654 3.53226 5.8654 3.32172V1.86487C5.8654 1.54876 5.57471 1.3111 5.27327 1.40631C2.91117 2.15233 1.19873 4.3611 1.19873 6.96982Z" stroke="#737373"/>
<path d="M12.6853 5.52551C12.1603 3.46439 10.5378 1.84178 8.4767 1.31668C8.18039 1.24119 7.90739 1.47675 7.90739 1.78252L7.90739 3.20813C7.90739 3.43337 8.05948 3.62748 8.26902 3.71009C9.16285 4.06249 9.93316 4.7816 10.3013 5.72807C10.3837 5.93987 10.5788 6.0948 10.806 6.0948L12.2195 6.0948C12.5252 6.0948 12.7608 5.82182 12.6853 5.52551Z" stroke="#737373"/>
</svg>
