<svg width="14" height="13" viewBox="0 0 14 13" fill="none" xmlns="http://www.w3.org/2000/svg">
<path d="M5 5.5C6.38071 5.5 7.5 4.38071 7.5 3C7.5 1.61929 6.38071 0.5 5 0.5C3.61929 0.5 2.5 1.61929 2.5 3C2.5 4.38071 3.61929 5.5 5 5.5Z" stroke="#737373" stroke-linecap="round" stroke-linejoin="round"/>
<path d="M0.5 12.5H5H9.5V11.9579C9.49204 11.1957 9.29102 10.4479 8.91573 9.7845C8.54043 9.121 8.0031 8.5635 7.35393 8.16401C6.70475 7.76451 5.96491 7.53607 5.20352 7.50002C5.13564 7.49681 5.06778 7.49514 5 7.495C4.93222 7.49514 4.86436 7.49681 4.79648 7.50002C4.03509 7.53607 3.29525 7.76451 2.64607 8.16401C1.9969 8.5635 1.45957 9.121 1.08427 9.7845C0.708977 10.4479 0.507961 11.1957 0.5 11.9579V12.5Z" stroke="#737373" stroke-linecap="round" stroke-linejoin="round"/>
<path d="M9 5.5C10.3807 5.5 11.5 4.38071 11.5 3C11.5 1.61929 10.3807 0.5 9 0.5" stroke="#737373" stroke-linecap="round" stroke-linejoin="round"/>
<path d="M11.5 12.5001H13.5V11.9579C13.492 11.1957 13.291 10.4479 12.9157 9.7845C12.5404 9.121 12.0031 8.56352 11.3539 8.16403C10.9343 7.90578 10.4767 7.71902 10 7.6095" stroke="#737373" stroke-linecap="round" stroke-linejoin="round"/>
</svg>
